#VRML V2.0 utf8
# 3D model generated by easyeda2kicad.py (https://github.com/uPesy/easyeda2kicad.py)

Shape{
    appearance Appearance {
        material  Material 	{
            diffuseColor 0.8117647058823529 0.8117647058823529 0.8117647058823529
            specularColor 0.7529411764705882 0.7529411764705882 0.7529411764705882
            ambientIntensity 1.0
            transparency 1.0
            shininess 0.5
        }
    }
    geometry IndexedFaceSet {
        ccw TRUE
        solid FALSE
        coord DEF co Coordinate {
            point [
                -0.1846 -0.1345 0.5093, -0.1846 -0.1345 0.5054, -0.1599 -0.1219 0.5054, -0.1599 -0.1219 0.5093, -1.4764 0.4134 0.2731, -1.2598 0.4134 0.2731, -1.2598 0.4134 0.5093, -1.8898 0.4134 0.2731, -1.6732 0.4134 0.2731, -1.8898 0.4134 0.5093, -1.4764 0.4134 -1.282, -1.6362 0.4134 -1.3589, -1.6732 0.4134 -1.282, -1.6635 0.4134 -1.3247, -1.5967 0.4134 -1.378, -1.5529 0.4134 -1.378, -1.5134 0.4134 -1.3589, -1.4861 0.4134 -1.3247, -1.5529 0.5709 -1.378, -1.5134 0.5709 -1.3589, -1.4861 0.5709 -1.3247, -1.4764 0.5709 -1.282, -1.5967 0.5709 -1.378, -1.6362 0.5709 -1.3589, -1.6635 0.5709 -1.3247, -1.6732 0.5709 -1.282, -1.6732 0.5709 0.2731, -1.8898 0.5709 0.2731, -1.8898 0.5709 0.5093, -1.2598 0.5709 0.2731, -1.4764 0.5709 0.2731, -1.2598 0.5709 0.5093, -0.689 0.4134 0.2731, -0.4724 0.4134 0.2731, -0.4724 0.4134 0.5093, -1.1024 0.4134 0.2731, -0.8858 0.4134 0.2731, -1.1024 0.4134 0.5093, -0.689 0.4134 -1.282, -0.8488 0.4134 -1.3589, -0.8858 0.4134 -1.282, -0.8761 0.4134 -1.3247, -0.8093 0.4134 -1.378, -0.7655 0.4134 -1.378, -0.726 0.4134 -1.3589, -0.6987 0.4134 -1.3247, -0.7655 0.5709 -1.378, -0.726 0.5709 -1.3589, -0.6987 0.5709 -1.3247, -0.689 0.5709 -1.282, -0.8093 0.5709 -1.378, -0.8488 0.5709 -1.3589, -0.8761 0.5709 -1.3247, -0.8858 0.5709 -1.282, -0.8858 0.5709 0.2731, -1.1024 0.5709 0.2731, -1.1024 0.5709 0.5093, -0.4724 0.5709 0.2731, -0.689 0.5709 0.2731, -0.4724 0.5709 0.5093, 0.0984 0.4134 0.2731, 0.315 0.4134 0.2731, 0.315 0.4134 0.5093, -0.315 0.4134 0.2731, -0.0984 0.4134 0.2731, -0.315 0.4134 0.5093, 0.0984 0.4134 -1.282, -0.0614 0.4134 -1.3589, -0.0984 0.4134 -1.282, -0.0887 0.4134 -1.3247, -0.0219 0.4134 -1.378, 0.0219 0.4134 -1.378, 0.0614 0.4134 -1.3589, 0.0887 0.4134 -1.3247, 0.0219 0.5709 -1.378, 0.0614 0.5709 -1.3589, 0.0887 0.5709 -1.3247, 0.0984 0.5709 -1.282, -0.0219 0.5709 -1.378, -0.0614 0.5709 -1.3589, -0.0887 0.5709 -1.3247, -0.0984 0.5709 -1.282, -0.0984 0.5709 0.2731, -0.315 0.5709 0.2731, -0.315 0.5709 0.5093, 0.315 0.5709 0.2731, 0.0984 0.5709 0.2731, 0.315 0.5709 0.5093, 1.1024 0.4134 0.2731, 0.4724 0.4134 0.5093, 0.4724 0.4134 0.2731, 1.1024 0.4134 0.5093, 0.4724 -0.5709 0.2731, 1.1024 -0.4134 0.2731, 1.1024 -0.5709 0.2731, 0.4724 -0.4134 0.2731, 1.1024 0.5709 0.2731, 0.4724 0.5709 0.2731, 0.4724 -0.5709 0.5093, 1.1024 -0.5709 0.5093, 0.4724 -0.4134 0.5093, 1.1024 -0.4134 0.5093, 1.1024 0.5709 0.5093, 0.4724 0.5709 0.5093, 1.6732 0.4134 0.2731, 1.8898 0.4134 0.2731, 1.8898 0.4134 0.5093, 1.2598 0.4134 0.2731, 1.4764 0.4134 0.2731, 1.2598 0.4134 0.5093, 1.6732 0.4134 -1.282, 1.5134 0.4134 -1.3589, 1.4764 0.4134 -1.282, 1.4861 0.4134 -1.3247, 1.5529 0.4134 -1.378, 1.5967 0.4134 -1.378, 1.6362 0.4134 -1.3589, 1.6635 0.4134 -1.3247, 1.5967 0.5709 -1.378, 1.6362 0.5709 -1.3589, 1.6635 0.5709 -1.3247, 1.6732 0.5709 -1.282, 1.5529 0.5709 -1.378, 1.5134 0.5709 -1.3589, 1.4861 0.5709 -1.3247, 1.4764 0.5709 -1.282, 1.4764 0.5709 0.2731, 1.2598 0.5709 0.2731, 1.2598 0.5709 0.5093, 1.8898 0.5709 0.2731, 1.6732 0.5709 0.2731, 1.8898 0.5709 0.5093, -1.4764 -0.5709 0.2731, -1.2598 -0.5709 0.2731, -1.2598 -0.5709 0.5093, -1.8898 -0.5709 0.2731, -1.6732 -0.5709 0.2731, -1.8898 -0.5709 0.5093, -1.4764 -0.5709 -1.282, -1.6362 -0.5709 -1.3589, -1.6732 -0.5709 -1.282, -1.6635 -0.5709 -1.3247, -1.5967 -0.5709 -1.378, -1.5529 -0.5709 -1.378, -1.5134 -0.5709 -1.3589, -1.4861 -0.5709 -1.3247, -1.5529 -0.4134 -1.378, -1.5134 -0.4134 -1.3589, -1.4861 -0.4134 -1.3247, -1.4764 -0.4134 -1.282, -1.5967 -0.4134 -1.378, -1.6362 -0.4134 -1.3589, -1.6635 -0.4134 -1.3247, -1.6732 -0.4134 -1.282, -1.6732 -0.4134 0.2731, -1.8898 -0.4134 0.2731, -1.8898 -0.4134 0.5093, -1.2598 -0.4134 0.2731, -1.4764 -0.4134 0.2731, -1.2598 -0.4134 0.5093, -0.689 -0.5709 0.2731, -0.4724 -0.5709 0.2731, -0.4724 -0.5709 0.5093, -1.1024 -0.5709 0.2731, -0.8858 -0.5709 0.2731, -1.1024 -0.5709 0.5093, -0.689 -0.5709 -1.282, -0.8488 -0.5709 -1.3589, -0.8858 -0.5709 -1.282, -0.8761 -0.5709 -1.3247, -0.8093 -0.5709 -1.378, -0.7655 -0.5709 -1.378, -0.726 -0.5709 -1.3589, -0.6987 -0.5709 -1.3247, -0.7655 -0.4134 -1.378, -0.726 -0.4134 -1.3589, -0.6987 -0.4134 -1.3247, -0.689 -0.4134 -1.282, -0.8093 -0.4134 -1.378, -0.8488 -0.4134 -1.3589, -0.8761 -0.4134 -1.3247, -0.8858 -0.4134 -1.282, -0.8858 -0.4134 0.2731, -1.1024 -0.4134 0.2731, -1.1024 -0.4134 0.5093, -0.4724 -0.4134 0.2731, -0.689 -0.4134 0.2731, -0.4724 -0.4134 0.5093, 0.0984 -0.5709 0.2731, 0.315 -0.5709 0.2731, 0.315 -0.5709 0.5093, -0.315 -0.5709 0.2731, -0.0984 -0.5709 0.2731, -0.315 -0.5709 0.5093, 0.0984 -0.5709 -1.282, -0.0614 -0.5709 -1.3589, -0.0984 -0.5709 -1.282, -0.0887 -0.5709 -1.3247, -0.0219 -0.5709 -1.378, 0.0219 -0.5709 -1.378, 0.0614 -0.5709 -1.3589, 0.0887 -0.5709 -1.3247, 0.0219 -0.4134 -1.378, 0.0614 -0.4134 -1.3589, 0.0887 -0.4134 -1.3247, 0.0984 -0.4134 -1.282, -0.0219 -0.4134 -1.378, -0.0614 -0.4134 -1.3589, -0.0887 -0.4134 -1.3247, -0.0984 -0.4134 -1.282, -0.0984 -0.4134 0.2731, -0.315 -0.4134 0.2731, -0.315 -0.4134 0.5093, 0.315 -0.4134 0.2731, 0.0984 -0.4134 0.2731, 0.315 -0.4134 0.5093, 1.6732 -0.5709 0.2731, 1.8898 -0.5709 0.2731, 1.8898 -0.5709 0.5093, 1.2598 -0.5709 0.2731, 1.4764 -0.5709 0.2731, 1.2598 -0.5709 0.5093, 1.6732 -0.5709 -1.282, 1.5134 -0.5709 -1.3589, 1.4764 -0.5709 -1.282, 1.4861 -0.5709 -1.3247, 1.5529 -0.5709 -1.378, 1.5967 -0.5709 -1.378, 1.6362 -0.5709 -1.3589, 1.6635 -0.5709 -1.3247, 1.5967 -0.4134 -1.378, 1.6362 -0.4134 -1.3589, 1.6635 -0.4134 -1.3247, 1.6732 -0.4134 -1.282, 1.5529 -0.4134 -1.378, 1.5134 -0.4134 -1.3589, 1.4861 -0.4134 -1.3247, 1.4764 -0.4134 -1.282, 1.4764 -0.4134 0.2731, 1.2598 -0.4134 0.2731, 1.2598 -0.4134 0.5093, 1.8898 -0.4134 0.2731, 1.6732 -0.4134 0.2731, 1.8898 -0.4134 0.5093, -0.6403 0.1548 0.5093, -0.6403 0.1548 0.5054, -0.6403 -0.1408 0.5054, -0.6403 -0.1408 0.5093, -0.6034 -0.1408 0.5054, -0.6034 -0.1408 0.5093, -0.6034 0.1171 0.5054, -0.6034 0.1171 0.5093, -0.4186 0.1171 0.5054, -0.4186 0.1171 0.5093, -0.4186 0.1548 0.5054, -0.4186 0.1548 0.5093, -0.3139 -0.0842 0.5054, -0.3508 -0.0968 0.5054, -0.3262 -0.0653 0.5054, -0.1291 -0.0653 0.5054, -0.1353 -0.0968 0.5054, -0.1661 -0.0653 0.5054, -0.3016 0.1486 0.5054, -0.2708 0.1171 0.5054, -0.2954 0.1108 0.5054, -0.2153 0.1171 0.5054, -0.1846 0.1486 0.5054, -0.1907 0.1108 0.5054, -0.1599 0.136 0.5054, -0.1722 0.0982 0.5054, -0.2153 0.1548 0.5054, -0.2708 0.1548 0.5054, -0.3139 0.0982 0.5054, -0.3262 0.136 0.5054, -0.3262 0.0794 0.5054, -0.3508 0.1108 0.5054, -0.3632 0.0857 0.5054, -0.3324 0.0542 0.5054, -0.3632 -0.0716 0.5054, -0.3324 -0.0401 0.5054, -0.3693 -0.0401 0.5054, -0.3693 0.0542 0.5054, -0.2954 -0.0968 0.5054, -0.3262 -0.1219 0.5054, -0.3016 -0.1345 0.5054, -0.2708 -0.103 0.5054, -0.2153 -0.1408 0.5054, -0.2708 -0.1408 0.5054, -0.2153 -0.103 0.5054, -0.1907 -0.0968 0.5054, -0.1722 -0.0842 0.5054, -0.1353 0.1108 0.5054, -0.1661 0.0794 0.5054, -0.1291 0.0794 0.5054, -0.0799 0.1548 0.5054, -0.0429 0.0165 0.5054, -0.0799 -0.1408 0.5054, -0.0429 -0.0213 0.5054, 0.1419 0.1548 0.5054, -0.0429 0.1171 0.5054, 0.1172 0.0165 0.5054, 0.1172 -0.0213 0.5054, -0.0429 -0.103 0.5054, 0.1419 -0.103 0.5054, 0.1419 -0.1408 0.5054, 0.1419 0.1171 0.5054, 0.4313 0.0857 0.5054, 0.4005 0.0542 0.5054, 0.3944 0.0794 0.5054, 0.4375 0.0542 0.5054, 0.4005 -0.0401 0.5054, 0.4375 -0.0401 0.5054, 0.419 -0.0968 0.5054, 0.3821 -0.0842 0.5054, 0.3944 -0.0653 0.5054, 0.3636 -0.0968 0.5054, 0.3944 -0.1219 0.5054, 0.3698 -0.1345 0.5054, 0.339 -0.103 0.5054, 0.339 -0.1408 0.5054, 0.4313 -0.0716 0.5054, 0.2281 -0.103 0.5054, 0.1911 -0.1408 0.5054, 0.2281 0.1171 0.5054, 0.1911 0.1548 0.5054, 0.339 0.1171 0.5054, 0.3698 0.1486 0.5054, 0.3636 0.1108 0.5054, 0.3821 0.0982 0.5054, 0.3944 0.136 0.5054, 0.419 0.1108 0.5054, 0.339 0.1548 0.5054, 0.7331 0.1548 0.5054, 0.6346 -0.1408 0.5054, 0.6654 0.0542 0.5054, 0.5484 0.0794 0.5054, 0.4868 0.1548 0.5054, 0.5237 0.1548 0.5054, 0.5545 0.0542 0.5054, 0.6962 0.1548 0.5054, 0.6715 0.0794 0.5054, 0.5853 -0.1408 0.5054, 0.61 -0.1156 0.5054, -0.1661 0.0794 0.5093, -0.1291 0.0794 0.5093, -0.1353 0.1108 0.5093, -0.1599 0.136 0.5093, -0.1846 0.1486 0.5093, -0.2153 0.1548 0.5093, -0.2708 0.1548 0.5093, -0.3016 0.1486 0.5093, -0.3262 0.136 0.5093, -0.3508 0.1108 0.5093, -0.3632 0.0857 0.5093, -0.3693 0.0542 0.5093, -0.3693 -0.0401 0.5093, -0.3632 -0.0716 0.5093, -0.3508 -0.0968 0.5093, -0.3262 -0.1219 0.5093, -0.3016 -0.1345 0.5093, -0.2708 -0.1408 0.5093, -0.2153 -0.1408 0.5093, -0.1722 0.0982 0.5093, -0.1907 0.1108 0.5093, -0.2153 0.1171 0.5093, -0.2708 0.1171 0.5093, -0.2954 0.1108 0.5093, -0.3139 0.0982 0.5093, -0.3262 0.0794 0.5093, -0.3324 0.0542 0.5093, -0.3324 -0.0401 0.5093, -0.3262 -0.0653 0.5093, -0.3139 -0.0842 0.5093, -0.2954 -0.0968 0.5093, -0.2708 -0.103 0.5093, -0.2153 -0.103 0.5093, -0.1907 -0.0968 0.5093, -0.1722 -0.0842 0.5093, -0.1661 -0.0653 0.5093, -0.1291 -0.0653 0.5093, -0.1353 -0.0968 0.5093, -0.0429 0.1171 0.5093, 0.1419 0.1171 0.5093, 0.1419 0.1548 0.5093, -0.0799 0.1548 0.5093, -0.0799 -0.1408 0.5093, 0.1419 -0.1408 0.5093, 0.1419 -0.103 0.5093, -0.0429 -0.103 0.5093, -0.0429 -0.0213 0.5093, 0.1172 -0.0213 0.5093, 0.1172 0.0165 0.5093, -0.0429 0.0165 0.5093, 0.1911 -0.1408 0.5093, 0.339 -0.1408 0.5093, 0.3698 -0.1345 0.5093, 0.3944 -0.1219 0.5093, 0.419 -0.0968 0.5093, 0.4313 -0.0716 0.5093, 0.4375 -0.0401 0.5093, 0.4375 0.0542 0.5093, 0.4313 0.0857 0.5093, 0.419 0.1108 0.5093, 0.3944 0.136 0.5093, 0.3698 0.1486 0.5093, 0.339 0.1548 0.5093, 0.1911 0.1548 0.5093, 0.339 -0.103 0.5093, 0.2281 -0.103 0.5093, 0.2281 0.1171 0.5093, 0.339 0.1171 0.5093, 0.3636 0.1108 0.5093, 0.3821 0.0982 0.5093, 0.3944 0.0794 0.5093, 0.4005 0.0542 0.5093, 0.4005 -0.0401 0.5093, 0.3944 -0.0653 0.5093, 0.3821 -0.0842 0.5093, 0.3636 -0.0968 0.5093, 0.5853 -0.1408 0.5093, 0.6346 -0.1408 0.5093, 0.7331 0.1548 0.5093, 0.6962 0.1548 0.5093, 0.6715 0.0794 0.5093, 0.5484 0.0794 0.5093, 0.5237 0.1548 0.5093, 0.4868 0.1548 0.5093, 0.6654 0.0542 0.5093, 0.61 -0.1156 0.5093, 0.5545 0.0542 0.5093, 1.7717 1.2955 0.4096, 1.378 1.2999 0.4187, 1.378 1.3104 0.4466, 1.378 1.3164 0.4757, 1.7717 1.313 0.4561, 1.378 1.3191 0.5053, 1.7717 1.3189 0.5053, 1.378 1.2856 0.3927, 1.7717 1.2675 0.3687, 1.378 1.2672 0.3689, 1.378 1.1194 0.4983, 1.378 1.0785 0.4515, 1.378 1.2471 0.3452, 1.378 1.1214 0.5016, 1.377 1.2265 0.3218, 1.378 1.122 0.5053, 1.378 1.3189 0.5427, 1.378 1.122 0.5427, 1.079 1.122 0.5427, 1.079 1.3189 0.5427, -1.079 1.3189 0.9424, -1.079 1.3189 0.5427, -1.378 1.3189 0.5427, -1.7717 1.3189 0.9424, -3.1496 1.3189 2.8912, -2.9078 1.3189 -1.1784, -2.9783 1.3189 -1.1819, -3.0454 1.3189 -1.1604, -1.378 1.3191 0.5053, -1.7717 1.3189 0.5053, 2.7569 1.3189 -0.967, 3.1496 1.3189 -0.9867, 2.7625 1.3189 -1.0373, 2.8432 1.3189 -1.1502, 3.0454 1.3189 -1.1604, 2.9078 1.3189 -1.1784, -2.7569 1.3189 -0.0025, -2.3622 1.3189 0.9424, -2.3622 1.3189 -0.0025, -3.1496 1.3189 -0.9867, -2.8432 1.3189 -1.1502, -3.1007 1.3189 -1.1166, -2.7926 1.3189 -1.1011, 2.9783 1.3189 -1.1819, 2.7569 1.3189 -0.0025, -3.137 1.3189 -1.0561, 3.1007 1.3189 -1.1166, 2.7926 1.3189 -1.1011, -2.7625 1.3189 -1.0373, -2.7569 1.3189 -0.967, 3.137 1.3189 -1.0561, 2.638 1.3189 1.5885, 3.1496 1.3189 2.8912, 2.3622 1.3189 -0.0025, 2.3622 1.3189 0.9424, 1.2948 1.3189 1.5885, 1.5495 1.3189 1.5911, 1.7717 1.3189 0.9424, 1.079 1.3189 0.9424, 0.9798 1.3189 1.5885, 2.638 1.3189 2.3891, 1.2948 1.3189 2.3891, 0.9798 1.3189 2.3891, 2.0272 1.3189 1.5911, 1.5495 1.3189 2.3997, 2.0272 1.3189 2.3997, 2.3231 1.3189 1.5885, 2.3231 1.3189 2.3891, -1.7717 1.122 0.9424, -2.3622 1.122 0.9424, 2.3622 1.122 0.9424, 1.7717 1.122 0.9424, 1.079 1.122 0.9424, -1.079 1.122 0.9424, -1.7717 1.122 0.5053, -1.7717 1.2675 0.3687, -1.7717 1.2955 0.4096, -1.773 1.2265 0.3218, -1.7717 1.1214 0.5016, -1.7717 1.313 0.4561, -1.7717 1.1194 0.4983, -1.7731 1.0784 0.4514, -1.6095 1.099 0.1761, -1.5411 1.0989 0.176, -1.6085 0.9508 0.3057, -1.6724 0.966 0.323, -1.6743 1.1148 0.1942, -1.7248 0.9947 0.3559, -1.7266 1.1443 0.2279, -1.759 1.1831 0.2722, -1.7593 1.0337 0.4004, -1.5401 0.9509 0.3058, -1.4753 0.9667 0.3238, -1.4772 1.1141 0.1934, -1.4248 1.1428 0.2262, -1.423 0.9962 0.3575, -1.3903 1.1818 0.2707, -1.3907 1.035 0.4019, -1.3765 1.2265 0.3218, -1.3766 1.0784 0.4514, -1.378 1.1194 0.4983, -1.378 1.1214 0.5016, -1.378 1.122 0.5053, -1.378 1.2856 0.3927, -1.378 1.2672 0.3689, -1.378 1.2999 0.4187, -1.378 1.2471 0.3452, -1.378 1.3104 0.4466, -1.378 1.3164 0.4757, -1.378 1.122 0.5427, -1.079 1.122 0.5427, -3.1496 1.122 2.8912, 3.1496 1.122 2.8912, 1.2948 1.122 2.3891, 1.5495 1.122 2.3997, 1.7717 1.122 0.5053, -3.1496 1.122 -0.9867, -2.7625 1.122 -1.0373, -2.7569 1.122 -0.967, 2.3622 1.122 -0.0025, 2.7569 1.122 -0.0025, -2.7569 1.122 -0.0025, 2.638 1.122 1.5885, 2.638 1.122 2.3891, -3.0454 1.122 -1.1604, -2.8432 1.122 -1.1502, -3.1007 1.122 -1.1166, 3.1496 1.122 -0.9867, 2.9078 1.122 -1.1784, 2.9783 1.122 -1.1819, 3.0454 1.122 -1.1604, 3.1007 1.122 -1.1166, 2.8432 1.122 -1.1502, -2.9078 1.122 -1.1784, -2.9783 1.122 -1.1819, 2.7926 1.122 -1.1011, 3.137 1.122 -1.0561, 2.7625 1.122 -1.0373, 2.7569 1.122 -0.967, -2.7926 1.122 -1.1011, -3.137 1.122 -1.0561, -2.3622 1.122 -0.0025, 0.9798 1.122 2.3891, 2.3231 1.122 1.5885, 2.3231 1.122 2.3891, 2.0272 1.122 1.5911, 0.9798 1.122 1.5885, 1.2948 1.122 1.5885, 1.5495 1.122 1.5911, 2.0272 1.122 2.3997, -3.1496 1.2134 3.0983, -3.1496 1.27 3.0417, -3.1496 1.1141 2.9208, -3.1496 1.0925 2.9424, -3.1496 1.063 3.1471, -3.1496 1.1421 3.1346, -3.1496 1.063 2.9503, -3.1496 -1.3189 2.8912, -3.1496 -1.3064 2.9703, -3.1496 -1.122 2.8912, -3.1496 -1.27 3.0417, -3.1496 -1.1141 2.9208, -3.1496 -1.2134 3.0983, -3.1496 -1.3189 -0.9867, -3.1496 -1.122 -0.9867, -3.1496 -1.1421 3.1346, -3.1496 -1.063 3.1471, -3.1496 -1.0925 2.9424, -3.1496 -1.063 2.9503, -3.1496 1.3064 2.9703, 3.1496 1.2134 3.0983, 3.1496 1.27 3.0417, 3.1496 1.1421 3.1346, 3.1496 1.063 3.1471, 3.1496 1.3064 2.9703, 3.1496 1.0925 2.9424, 3.1496 1.1141 2.9208, 3.1496 1.063 2.9503, 3.1496 -1.27 3.0417, 3.1496 -1.3064 2.9703, 3.1496 -1.122 2.8912, 3.1496 -1.3189 2.8912, 3.1496 -1.1141 2.9208, 3.1496 -1.2134 3.0983, 3.1496 -1.122 -0.9867, 3.1496 -1.3189 -0.9867, 3.1496 -1.1421 3.1346, 3.1496 -1.063 3.1471, 3.1496 -1.0925 2.9424, 3.1496 -1.063 2.9503, -1.4173 -0.5118 2.9503, -1.4173 0.5118 2.9503, 1.4173 0.5118 2.9503, 1.4173 -0.5118 2.9503, -1.079 -1.122 0.9424, -1.079 -1.122 0.5427, -1.378 -1.122 0.5427, -1.5277 -1.122 1.56, -1.273 -1.122 1.5574, -2.9078 -1.122 -1.1784, -2.9783 -1.122 -1.1819, -3.0454 -1.122 -1.1604, -1.378 -1.122 0.5053, -1.7717 -1.122 0.5053, 2.7569 -1.122 -0.967, 2.7625 -1.122 -1.0373, -1.7717 -1.122 0.9424, 2.8432 -1.122 -1.1502, 3.0454 -1.122 -1.1604, 2.9078 -1.122 -1.1784, -2.7569 -1.122 -0.0025, -2.3622 -1.122 0.9424, -2.3622 -1.122 -0.0025, -0.958 -1.122 1.5574, 1.079 -1.122 0.9424, -2.6162 -1.122 2.358, -2.6162 -1.122 1.5574, -2.8432 -1.122 -1.1502, -3.1007 -1.122 -1.1166, -2.7926 -1.122 -1.1011, 2.9783 -1.122 -1.1819, 2.7569 -1.122 -0.0025, -3.137 -1.122 -1.0561, 3.1007 -1.122 -1.1166, 2.7926 -1.122 -1.1011, -2.7625 -1.122 -1.0373, -2.7569 -1.122 -0.967, 3.137 -1.122 -1.0561, 2.3622 -1.122 0.9424, 2.3622 -1.122 -0.0025, 1.7717 -1.122 0.9424, 1.7717 -1.122 0.5053, 1.378 -1.122 0.5427, 1.378 -1.122 0.5053, 1.079 -1.122 0.5427, -0.958 -1.122 2.358, -1.273 -1.122 2.358, -2.0054 -1.122 1.56, -1.5277 -1.122 2.3686, -2.3013 -1.122 2.358, -2.0054 -1.122 2.3686, -2.3013 -1.122 1.5574, -1.7717 -1.3189 0.9424, -2.3622 -1.3189 0.9424, 2.3622 -1.3189 0.9424, 1.7717 -1.3189 0.9424, 1.079 -1.3189 0.9424, -1.079 -1.3189 0.9424, -1.7717 -1.2675 0.3687, -1.7717 -1.2955 0.4096, -1.7717 -1.3189 0.5053, -1.7726 -1.0784 0.4515, -1.7717 -1.2266 0.3219, -1.7717 -1.1194 0.4983, -1.7717 -1.313 0.4561, -1.7717 -1.1214 0.5016, -1.5398 -0.951 0.3059, -1.4758 -0.9665 0.3237, -1.5416 -1.0989 0.176, -1.6098 -1.0991 0.1762, -1.3899 -1.0341 0.4008, -1.4246 -1.143 0.2263, -1.4237 -0.9955 0.3567, -1.4772 -1.1141 0.1934, -1.3901 -1.182 0.2709, -1.378 -1.0785 0.4515, -1.377 -1.2265 0.3218, -1.608 -0.9508 0.3057, -1.6724 -0.966 0.323, -1.6738 -1.1147 0.194, -1.7259 -1.1436 0.2271, -1.725 -0.9948 0.356, -1.7597 -1.1822 0.2712, -1.7595 -1.0338 0.4006, -1.378 -1.1194 0.4983, -1.378 -1.2856 0.3927, -1.378 -1.2672 0.3689, -1.378 -1.2999 0.4187, -1.378 -1.2471 0.3452, -1.378 -1.1214 0.5016, -1.378 -1.3104 0.4466, -1.378 -1.3164 0.4757, -1.378 -1.3191 0.5053, -1.378 -1.3189 0.5427, -1.079 -1.3189 0.5427, -0.958 -1.3189 1.5574, -1.273 -1.3189 1.5574, 1.7717 -1.3189 0.5053, 1.378 -1.3189 0.5427, -2.7625 -1.3189 -1.0373, -2.7569 -1.3189 -0.967, 2.3622 -1.3189 -0.0025, 2.7569 -1.3189 -0.0025, -2.7569 -1.3189 -0.0025, -2.6162 -1.3189 1.5574, -3.0454 -1.3189 -1.1604, -2.8432 -1.3189 -1.1502, -3.1007 -1.3189 -1.1166, 2.9078 -1.3189 -1.1784, 2.9783 -1.3189 -1.1819, 3.0454 -1.3189 -1.1604, 3.1007 -1.3189 -1.1166, 2.8432 -1.3189 -1.1502, -2.9078 -1.3189 -1.1784, -2.9783 -1.3189 -1.1819, 2.7926 -1.3189 -1.1011, 3.137 -1.3189 -1.0561, 2.7625 -1.3189 -1.0373, 2.7569 -1.3189 -0.967, -2.7926 -1.3189 -1.1011, -3.137 -1.3189 -1.0561, -2.3622 -1.3189 -0.0025, -1.5277 -1.3189 1.56, 1.079 -1.3189 0.5427, -2.6162 -1.3189 2.358, 1.378 -1.3191 0.5053, -1.273 -1.3189 2.358, -0.958 -1.3189 2.358, -1.5277 -1.3189 2.3686, -2.0054 -1.3189 2.3686, -2.0054 -1.3189 1.56, -2.3013 -1.3189 2.358, -2.3013 -1.3189 1.5574, 1.378 -1.2856 0.3927, 1.378 -1.1194 0.4983, 1.378 -1.2672 0.3689, 1.3766 -1.0784 0.4514, 1.378 -1.2999 0.4187, 1.378 -1.2471 0.3452, 1.378 -1.1214 0.5016, 1.3765 -1.2265 0.3218, 1.378 -1.3104 0.4466, 1.378 -1.3164 0.4757, 1.7717 -1.313 0.4561, 1.7717 -1.2955 0.4096, 1.7717 -1.2675 0.3687, 1.773 -1.2265 0.3218, 1.7717 -1.1214 0.5016, 1.7717 -1.1194 0.4983, 1.7731 -1.0784 0.4514, 1.6095 -1.099 0.1761, 1.5411 -1.0989 0.176, 1.6085 -0.9508 0.3057, 1.6724 -0.966 0.323, 1.6743 -1.1148 0.1942, 1.7248 -0.9947 0.3559, 1.7266 -1.1443 0.2279, 1.759 -1.1831 0.2722, 1.7593 -1.0337 0.4004, 1.5401 -0.9509 0.3058, 1.4753 -0.9667 0.3238, 1.4772 -1.1141 0.1934, 1.4248 -1.1428 0.2262, 1.423 -0.9962 0.3575, 1.3903 -1.1818 0.2707, 1.3907 -1.035 0.4019, -1.4173 0.5118 3.1471, -1.4173 -0.5118 3.1471, 1.4173 0.5118 3.1471, 1.4173 -0.5118 3.1471, 1.7726 1.0784 0.4515, 1.7717 1.2266 0.3219, 1.7717 1.1194 0.4983, 1.7717 1.1214 0.5016, 1.608 0.9508 0.3057, 1.5398 0.951 0.3059, 1.6098 1.0991 0.1762, 1.6738 1.1147 0.194, 1.6724 0.966 0.323, 1.7259 1.1436 0.2271, 1.725 0.9948 0.356, 1.7595 1.0338 0.4006, 1.7597 1.1822 0.2712, 1.5416 1.0989 0.176, 1.4772 1.1141 0.1934, 1.4758 0.9665 0.3237, 1.4237 0.9955 0.3567, 1.4246 1.143 0.2263, 1.3899 1.0341 0.4008, 1.3901 1.182 0.2709
            ]
        }
        coordIndex [
            0,1,2,-1,0,2,3,-1,4,5,6,-1,7,8,9,-1,6,9,4,-1,4,9,8,-1,10,4,8,-1,11,12,13,-1,8,12,10,-1,12,14,15,-1,11,14,12,-1,16,10,15,-1,12,15,10,-1,10,16,17,-1,18,15,14,-1,15,19,16,-1,19,15,18,-1,17,16,20,-1,19,20,16,-1,21,10,17,-1,17,20,21,-1,18,14,22,-1,11,23,22,-1,22,14,11,-1,23,13,24,-1,13,23,11,-1,13,12,24,-1,24,12,25,-1,26,27,28,-1,29,30,31,-1,28,31,26,-1,26,31,30,-1,25,26,30,-1,19,21,20,-1,30,21,25,-1,21,18,22,-1,19,18,21,-1,23,25,22,-1,21,22,25,-1,25,23,24,-1,21,4,10,-1,4,21,30,-1,7,27,26,-1,7,26,8,-1,4,29,5,-1,29,4,30,-1,12,26,25,-1,26,12,8,-1,28,27,7,-1,28,7,9,-1,6,5,29,-1,6,29,31,-1,32,33,34,-1,35,36,37,-1,34,37,32,-1,32,37,36,-1,38,32,36,-1,39,40,41,-1,36,40,38,-1,40,42,43,-1,39,42,40,-1,44,38,43,-1,40,43,38,-1,38,44,45,-1,46,43,42,-1,43,47,44,-1,47,43,46,-1,45,44,48,-1,47,48,44,-1,49,38,45,-1,45,48,49,-1,46,42,50,-1,39,51,50,-1,50,42,39,-1,51,41,52,-1,41,51,39,-1,41,40,52,-1,52,40,53,-1,54,55,56,-1,57,58,59,-1,56,59,54,-1,54,59,58,-1,53,54,58,-1,47,49,48,-1,58,49,53,-1,49,46,50,-1,47,46,49,-1,51,53,50,-1,49,50,53,-1,53,51,52,-1,49,32,38,-1,32,49,58,-1,32,57,33,-1,57,32,58,-1,35,54,36,-1,54,35,55,-1,57,59,34,-1,57,34,33,-1,40,54,53,-1,54,40,36,-1,35,56,55,-1,56,35,37,-1,60,61,62,-1,63,64,65,-1,62,65,60,-1,60,65,64,-1,66,60,64,-1,67,68,69,-1,64,68,66,-1,68,70,71,-1,67,70,68,-1,72,66,71,-1,68,71,66,-1,66,72,73,-1,74,71,70,-1,71,75,72,-1,75,71,74,-1,73,72,76,-1,75,76,72,-1,77,66,73,-1,73,76,77,-1,74,70,78,-1,67,79,78,-1,78,70,67,-1,79,69,80,-1,69,79,67,-1,69,68,80,-1,80,68,81,-1,82,83,84,-1,85,86,87,-1,84,87,82,-1,82,87,86,-1,81,82,86,-1,75,77,76,-1,86,77,81,-1,77,74,78,-1,75,74,77,-1,79,81,78,-1,77,78,81,-1,81,79,80,-1,77,60,66,-1,60,77,86,-1,60,85,61,-1,85,60,86,-1,63,82,64,-1,82,63,83,-1,85,87,62,-1,85,62,61,-1,68,82,81,-1,82,68,64,-1,63,84,83,-1,84,63,65,-1,88,89,90,-1,89,88,91,-1,92,93,94,-1,93,92,95,-1,90,96,88,-1,96,90,97,-1,94,98,92,-1,98,94,99,-1,92,100,95,-1,100,92,98,-1,95,101,93,-1,101,95,100,-1,93,101,99,-1,93,99,94,-1,96,102,91,-1,96,91,88,-1,97,102,96,-1,102,97,103,-1,90,103,97,-1,103,90,89,-1,104,105,106,-1,107,108,109,-1,106,109,104,-1,104,109,108,-1,110,104,108,-1,111,112,113,-1,108,112,110,-1,112,114,115,-1,111,114,112,-1,116,110,115,-1,112,115,110,-1,110,116,117,-1,118,115,114,-1,115,119,116,-1,119,115,118,-1,117,116,120,-1,119,120,116,-1,121,110,117,-1,117,120,121,-1,118,114,122,-1,111,123,122,-1,122,114,111,-1,123,113,124,-1,113,123,111,-1,113,112,124,-1,124,112,125,-1,126,127,128,-1,129,130,131,-1,128,131,126,-1,126,131,130,-1,125,126,130,-1,119,121,120,-1,130,121,125,-1,121,118,122,-1,119,118,121,-1,123,125,122,-1,121,122,125,-1,125,123,124,-1,121,104,110,-1,104,121,130,-1,104,129,105,-1,129,104,130,-1,107,126,108,-1,126,107,127,-1,129,131,106,-1,129,106,105,-1,112,126,125,-1,126,112,108,-1,107,128,127,-1,128,107,109,-1,132,133,134,-1,135,136,137,-1,134,137,132,-1,132,137,136,-1,138,132,136,-1,139,140,141,-1,136,140,138,-1,140,142,143,-1,139,142,140,-1,144,138,143,-1,140,143,138,-1,138,144,145,-1,146,143,142,-1,143,147,144,-1,147,143,146,-1,145,144,148,-1,147,148,144,-1,149,138,145,-1,145,148,149,-1,146,142,150,-1,139,151,150,-1,150,142,139,-1,151,141,152,-1,141,151,139,-1,141,140,152,-1,152,140,153,-1,154,155,156,-1,157,158,159,-1,156,159,154,-1,154,159,158,-1,153,154,158,-1,147,149,148,-1,158,149,153,-1,149,146,150,-1,147,146,149,-1,151,153,150,-1,149,150,153,-1,153,151,152,-1,149,132,138,-1,132,149,158,-1,132,157,133,-1,157,132,158,-1,135,154,136,-1,154,135,155,-1,157,159,134,-1,157,134,133,-1,140,154,153,-1,154,140,136,-1,135,156,155,-1,156,135,137,-1,160,161,162,-1,163,164,165,-1,162,165,160,-1,160,165,164,-1,166,160,164,-1,167,168,169,-1,164,168,166,-1,168,170,171,-1,167,170,168,-1,172,166,171,-1,168,171,166,-1,166,172,173,-1,174,171,170,-1,171,175,172,-1,175,171,174,-1,173,172,176,-1,175,176,172,-1,177,166,173,-1,173,176,177,-1,174,170,178,-1,167,179,178,-1,178,170,167,-1,179,169,180,-1,169,179,167,-1,169,168,180,-1,180,168,181,-1,182,183,184,-1,185,186,187,-1,184,187,182,-1,182,187,186,-1,181,182,186,-1,175,177,176,-1,186,177,181,-1,177,174,178,-1,175,174,177,-1,179,181,178,-1,177,178,181,-1,181,179,180,-1,177,160,166,-1,160,177,186,-1,160,185,161,-1,185,160,186,-1,163,182,164,-1,182,163,183,-1,185,187,162,-1,185,162,161,-1,168,182,181,-1,182,168,164,-1,163,184,183,-1,184,163,165,-1,188,189,190,-1,191,192,193,-1,190,193,188,-1,188,193,192,-1,194,188,192,-1,195,196,197,-1,192,196,194,-1,196,198,199,-1,195,198,196,-1,200,194,199,-1,196,199,194,-1,194,200,201,-1,202,199,198,-1,199,203,200,-1,203,199,202,-1,201,200,204,-1,203,204,200,-1,205,194,201,-1,201,204,205,-1,202,198,206,-1,195,207,206,-1,206,198,195,-1,207,197,208,-1,197,207,195,-1,197,196,208,-1,208,196,209,-1,210,211,212,-1,213,214,215,-1,212,215,210,-1,210,215,214,-1,209,210,214,-1,203,205,204,-1,214,205,209,-1,205,202,206,-1,203,202,205,-1,207,209,206,-1,205,206,209,-1,209,207,208,-1,205,188,194,-1,188,205,214,-1,188,213,189,-1,213,188,214,-1,191,210,192,-1,210,191,211,-1,213,215,190,-1,213,190,189,-1,196,210,209,-1,210,196,192,-1,191,212,211,-1,212,191,193,-1,216,217,218,-1,219,220,221,-1,218,221,216,-1,216,221,220,-1,222,216,220,-1,223,224,225,-1,220,224,222,-1,224,226,227,-1,223,226,224,-1,228,222,227,-1,224,227,222,-1,222,228,229,-1,230,227,226,-1,227,231,228,-1,231,227,230,-1,229,228,232,-1,231,232,228,-1,233,222,229,-1,229,232,233,-1,230,226,234,-1,223,235,234,-1,234,226,223,-1,235,225,236,-1,225,235,223,-1,225,224,236,-1,236,224,237,-1,238,239,240,-1,241,242,243,-1,240,243,238,-1,238,243,242,-1,237,238,242,-1,231,233,232,-1,242,233,237,-1,233,230,234,-1,231,230,233,-1,235,237,234,-1,233,234,237,-1,237,235,236,-1,233,216,222,-1,216,233,242,-1,216,241,217,-1,241,216,242,-1,219,238,220,-1,238,219,239,-1,241,243,218,-1,241,218,217,-1,224,238,237,-1,238,224,220,-1,219,240,239,-1,240,219,221,-1,244,245,246,-1,244,246,247,-1,247,246,248,-1,247,248,249,-1,249,248,250,-1,249,250,251,-1,251,250,252,-1,251,252,253,-1,253,252,254,-1,253,254,255,-1,255,254,245,-1,255,245,244,-1,250,254,252,-1,250,246,245,-1,250,248,246,-1,254,250,245,-1,256,257,258,-1,259,260,261,-1,262,263,264,-1,265,266,267,-1,267,268,269,-1,270,263,271,-1,272,273,264,-1,274,275,272,-1,276,275,274,-1,274,277,276,-1,258,278,279,-1,277,280,281,-1,282,283,256,-1,284,283,282,-1,285,284,282,-1,286,287,288,-1,289,1,288,-1,290,2,289,-1,261,260,290,-1,269,291,292,-1,260,2,290,-1,2,1,289,-1,1,286,288,-1,287,285,288,-1,287,284,285,-1,256,283,257,-1,257,278,258,-1,278,280,279,-1,279,280,277,-1,281,276,277,-1,272,275,273,-1,264,273,262,-1,262,271,263,-1,270,265,263,-1,270,266,265,-1,266,268,267,-1,268,291,269,-1,291,293,292,-1,294,295,296,-1,295,297,296,-1,294,298,299,-1,297,300,301,-1,302,303,304,-1,304,296,302,-1,302,296,297,-1,300,297,295,-1,295,294,299,-1,298,305,299,-1,306,307,308,-1,309,307,306,-1,309,310,307,-1,309,311,310,-1,312,313,314,-1,315,313,316,-1,317,315,316,-1,317,318,315,-1,318,317,319,-1,310,320,314,-1,321,319,322,-1,323,322,324,-1,325,326,327,-1,321,318,319,-1,328,327,329,-1,316,313,312,-1,312,314,320,-1,320,310,311,-1,328,330,308,-1,330,306,308,-1,330,328,329,-1,329,327,326,-1,331,325,323,-1,326,325,331,-1,322,323,321,-1,331,323,324,-1,332,333,334,-1,335,336,337,-1,335,338,336,-1,339,332,340,-1,334,338,340,-1,334,340,332,-1,333,341,342,-1,338,335,340,-1,333,342,334,-1,342,341,338,-1,336,338,341,-1,343,292,293,-1,343,293,344,-1,344,293,291,-1,344,291,345,-1,345,291,268,-1,345,268,346,-1,346,268,266,-1,346,266,347,-1,347,266,270,-1,347,270,348,-1,348,270,271,-1,348,271,349,-1,349,271,262,-1,349,262,350,-1,350,262,273,-1,350,273,351,-1,351,273,275,-1,351,275,352,-1,352,275,276,-1,352,276,353,-1,353,276,281,-1,353,281,354,-1,354,281,280,-1,354,280,355,-1,355,280,278,-1,355,278,356,-1,356,278,257,-1,356,257,357,-1,357,257,283,-1,357,283,358,-1,358,283,284,-1,358,284,359,-1,359,284,287,-1,359,287,360,-1,360,287,286,-1,360,286,361,-1,361,286,1,-1,361,1,0,-1,362,269,292,-1,362,292,343,-1,363,267,269,-1,363,269,362,-1,364,265,267,-1,364,267,363,-1,365,263,265,-1,365,265,364,-1,366,264,263,-1,366,263,365,-1,367,272,264,-1,367,264,366,-1,368,274,272,-1,368,272,367,-1,369,277,274,-1,369,274,368,-1,370,279,277,-1,370,277,369,-1,371,258,279,-1,371,279,370,-1,372,256,258,-1,372,258,371,-1,373,282,256,-1,373,256,372,-1,374,285,282,-1,374,282,373,-1,375,288,285,-1,375,285,374,-1,376,289,288,-1,376,288,375,-1,377,290,289,-1,377,289,376,-1,378,261,290,-1,378,290,377,-1,379,259,261,-1,379,261,378,-1,380,260,259,-1,380,259,379,-1,3,2,260,-1,3,260,380,-1,381,299,305,-1,381,305,382,-1,382,305,298,-1,382,298,383,-1,383,298,294,-1,383,294,384,-1,384,294,296,-1,384,296,385,-1,385,296,304,-1,385,304,386,-1,386,304,303,-1,386,303,387,-1,387,303,302,-1,387,302,388,-1,388,302,297,-1,388,297,389,-1,389,297,301,-1,389,301,390,-1,390,301,300,-1,390,300,391,-1,391,300,295,-1,391,295,392,-1,392,295,299,-1,392,299,381,-1,393,322,319,-1,393,319,394,-1,394,319,317,-1,394,317,395,-1,395,317,316,-1,395,316,396,-1,396,316,312,-1,396,312,397,-1,397,312,320,-1,397,320,398,-1,398,320,311,-1,398,311,399,-1,399,311,309,-1,399,309,400,-1,400,309,306,-1,400,306,401,-1,401,306,330,-1,401,330,402,-1,402,330,329,-1,402,329,403,-1,403,329,326,-1,403,326,404,-1,404,326,331,-1,404,331,405,-1,405,331,324,-1,405,324,406,-1,406,324,322,-1,406,322,393,-1,407,318,321,-1,407,321,408,-1,408,321,323,-1,408,323,409,-1,409,323,325,-1,409,325,410,-1,410,325,327,-1,410,327,411,-1,411,327,328,-1,411,328,412,-1,412,328,308,-1,412,308,413,-1,413,308,307,-1,413,307,414,-1,414,307,310,-1,414,310,415,-1,415,310,314,-1,415,314,416,-1,416,314,313,-1,416,313,417,-1,417,313,315,-1,417,315,418,-1,418,315,318,-1,418,318,407,-1,419,341,333,-1,419,333,420,-1,420,333,332,-1,420,332,421,-1,421,332,339,-1,421,339,422,-1,422,339,340,-1,422,340,423,-1,423,340,335,-1,423,335,424,-1,424,335,337,-1,424,337,425,-1,425,337,336,-1,425,336,426,-1,426,336,341,-1,426,341,419,-1,427,334,342,-1,427,342,428,-1,428,342,338,-1,428,338,429,-1,429,338,334,-1,429,334,427,-1,430,431,432,-1,433,434,432,-1,430,432,434,-1,433,435,436,-1,436,434,433,-1,437,431,430,-1,430,438,437,-1,437,438,439,-1,437,439,440,-1,441,440,439,-1,437,440,431,-1,441,439,442,-1,443,431,440,-1,444,441,442,-1,431,443,432,-1,433,432,443,-1,433,445,435,-1,445,433,443,-1,446,445,447,-1,435,445,446,-1,446,448,449,-1,448,446,447,-1,450,451,452,-1,450,453,454,-1,455,456,457,-1,458,459,452,-1,460,461,462,-1,459,453,452,-1,463,464,465,-1,466,467,468,-1,453,450,452,-1,453,467,454,-1,466,454,467,-1,469,454,466,-1,455,457,470,-1,471,472,470,-1,470,457,471,-1,465,464,473,-1,474,461,460,-1,471,475,472,-1,476,463,477,-1,469,478,475,-1,472,475,478,-1,469,479,478,-1,479,469,466,-1,464,463,476,-1,480,477,462,-1,477,480,476,-1,474,481,482,-1,480,462,461,-1,482,461,474,-1,474,483,484,-1,485,486,487,-1,487,436,446,-1,446,488,487,-1,436,435,446,-1,446,449,488,-1,487,488,485,-1,489,488,450,-1,481,490,482,-1,485,488,489,-1,482,491,492,-1,450,454,492,-1,482,492,454,-1,450,492,489,-1,487,493,484,-1,486,491,494,-1,493,487,486,-1,491,482,494,-1,482,495,494,-1,491,486,485,-1,474,484,481,-1,496,481,484,-1,482,490,497,-1,493,495,497,-1,482,497,495,-1,484,493,496,-1,497,496,493,-1,498,467,453,-1,467,498,499,-1,487,484,500,-1,487,500,501,-1,502,450,488,-1,450,502,503,-1,504,459,505,-1,459,506,505,-1,459,504,453,-1,504,505,507,-1,504,498,453,-1,504,507,508,-1,509,506,459,-1,507,510,508,-1,510,507,511,-1,512,513,514,-1,515,516,512,-1,512,514,515,-1,516,517,518,-1,517,516,515,-1,519,518,520,-1,517,520,518,-1,511,507,519,-1,519,520,511,-1,514,513,521,-1,522,521,523,-1,513,523,521,-1,524,525,522,-1,522,523,524,-1,525,526,527,-1,526,525,524,-1,526,528,527,-1,527,528,529,-1,517,515,522,-1,510,529,530,-1,520,527,511,-1,521,515,514,-1,517,522,525,-1,522,515,521,-1,517,525,520,-1,520,525,527,-1,529,511,527,-1,529,510,511,-1,504,531,532,-1,530,508,510,-1,508,530,531,-1,504,508,531,-1,533,530,534,-1,529,534,530,-1,533,535,530,-1,529,536,534,-1,531,530,535,-1,528,536,529,-1,535,537,531,-1,538,531,537,-1,538,458,532,-1,532,531,538,-1,452,539,532,-1,458,452,532,-1,452,451,540,-1,540,539,452,-1,541,498,503,-1,542,543,544,-1,545,501,447,-1,546,547,548,-1,500,549,550,-1,551,499,541,-1,552,542,553,-1,554,555,556,-1,557,542,550,-1,558,559,560,-1,560,561,562,-1,562,558,560,-1,563,554,564,-1,563,555,554,-1,565,561,566,-1,561,565,562,-1,567,565,566,-1,567,557,568,-1,557,567,566,-1,568,557,550,-1,555,569,556,-1,570,569,547,-1,569,570,556,-1,548,551,546,-1,570,547,546,-1,541,546,551,-1,551,571,499,-1,541,499,498,-1,498,504,539,-1,503,498,539,-1,504,532,539,-1,539,540,503,-1,448,447,502,-1,541,503,572,-1,573,574,575,-1,545,447,445,-1,501,502,447,-1,576,502,577,-1,541,572,542,-1,501,578,502,-1,575,501,500,-1,502,576,503,-1,576,572,503,-1,542,572,543,-1,577,578,543,-1,578,501,575,-1,575,574,579,-1,578,577,502,-1,578,544,543,-1,579,542,544,-1,573,575,500,-1,579,574,542,-1,500,550,552,-1,550,542,552,-1,500,552,573,-1,542,574,553,-1,449,502,488,-1,502,449,448,-1,451,450,503,-1,503,540,451,-1,468,467,499,-1,499,571,468,-1,466,468,571,-1,571,551,466,-1,479,466,551,-1,551,548,479,-1,455,563,564,-1,563,470,555,-1,470,563,455,-1,569,555,472,-1,470,472,555,-1,478,547,569,-1,569,472,478,-1,479,547,478,-1,479,548,547,-1,455,564,456,-1,457,456,554,-1,564,554,456,-1,556,471,457,-1,457,554,556,-1,471,570,475,-1,570,471,556,-1,570,546,475,-1,475,546,469,-1,580,581,582,-1,583,584,585,-1,585,582,583,-1,580,582,585,-1,583,586,584,-1,587,588,589,-1,589,590,591,-1,590,589,588,-1,590,592,591,-1,593,587,594,-1,591,592,595,-1,587,589,594,-1,596,597,595,-1,591,595,597,-1,596,586,598,-1,596,598,597,-1,596,584,586,-1,581,599,541,-1,581,541,582,-1,469,541,454,-1,599,454,541,-1,541,469,546,-1,600,601,580,-1,585,602,600,-1,600,580,585,-1,584,602,585,-1,584,603,602,-1,580,601,581,-1,581,604,599,-1,604,581,601,-1,604,482,599,-1,599,482,454,-1,605,606,602,-1,600,606,601,-1,603,607,605,-1,605,602,603,-1,608,609,610,-1,609,611,610,-1,612,613,608,-1,608,610,612,-1,614,611,615,-1,612,616,613,-1,611,614,610,-1,617,616,618,-1,612,618,616,-1,617,619,607,-1,617,618,619,-1,606,600,602,-1,607,603,617,-1,601,542,604,-1,601,606,542,-1,604,542,482,-1,557,461,542,-1,542,461,482,-1,473,559,558,-1,559,464,560,-1,464,559,473,-1,561,560,476,-1,464,476,560,-1,480,566,561,-1,561,476,480,-1,461,566,480,-1,461,557,566,-1,473,558,465,-1,463,465,562,-1,558,562,465,-1,565,477,463,-1,463,562,565,-1,477,567,462,-1,567,477,565,-1,567,568,462,-1,462,568,460,-1,474,460,568,-1,568,550,474,-1,483,474,550,-1,550,549,483,-1,484,483,549,-1,549,500,484,-1,606,583,582,-1,586,605,607,-1,605,583,606,-1,542,582,541,-1,542,606,582,-1,586,583,605,-1,598,586,620,-1,620,586,621,-1,586,607,622,-1,607,619,622,-1,586,622,621,-1,619,598,620,-1,622,619,623,-1,619,620,623,-1,618,591,597,-1,589,612,610,-1,612,591,618,-1,619,597,598,-1,619,618,597,-1,589,591,612,-1,624,625,626,-1,627,628,624,-1,629,630,631,-1,632,633,626,-1,634,614,635,-1,633,636,626,-1,637,638,639,-1,640,641,642,-1,636,624,626,-1,643,644,624,-1,589,645,646,-1,594,589,640,-1,629,631,647,-1,648,649,647,-1,647,631,648,-1,639,638,650,-1,651,614,634,-1,648,652,649,-1,653,637,654,-1,594,655,652,-1,649,652,655,-1,594,656,655,-1,656,594,640,-1,624,628,643,-1,638,637,653,-1,657,654,635,-1,654,657,653,-1,651,658,610,-1,657,635,614,-1,610,614,651,-1,651,659,658,-1,610,658,660,-1,660,661,662,-1,662,644,660,-1,661,663,662,-1,662,664,644,-1,610,660,644,-1,589,610,665,-1,610,644,665,-1,666,628,627,-1,589,665,666,-1,636,627,624,-1,667,636,641,-1,665,644,643,-1,636,667,627,-1,589,666,668,-1,669,670,667,-1,589,668,670,-1,669,667,671,-1,666,627,668,-1,667,641,671,-1,589,670,669,-1,589,669,645,-1,641,640,646,-1,640,589,646,-1,641,646,671,-1,672,641,636,-1,641,672,673,-1,660,658,674,-1,660,674,675,-1,676,624,644,-1,624,676,677,-1,678,679,680,-1,681,682,683,-1,680,672,633,-1,678,680,633,-1,633,672,636,-1,633,682,678,-1,684,680,679,-1,682,633,685,-1,685,683,682,-1,686,687,688,-1,686,688,689,-1,690,691,692,-1,687,692,693,-1,693,692,691,-1,694,691,690,-1,687,693,688,-1,695,696,694,-1,690,695,694,-1,686,689,697,-1,698,697,699,-1,689,699,697,-1,700,701,698,-1,698,699,700,-1,701,702,703,-1,702,701,700,-1,702,682,703,-1,703,682,681,-1,686,697,698,-1,695,683,704,-1,698,701,687,-1,687,686,698,-1,687,701,692,-1,692,701,703,-1,690,703,681,-1,703,690,692,-1,690,681,695,-1,695,681,683,-1,705,706,704,-1,695,704,706,-1,705,704,707,-1,695,706,708,-1,709,707,704,-1,696,695,708,-1,707,709,710,-1,711,710,709,-1,711,632,712,-1,632,711,709,-1,713,632,626,-1,712,632,713,-1,713,625,714,-1,625,713,626,-1,715,716,677,-1,675,674,611,-1,717,675,718,-1,593,719,720,-1,674,721,722,-1,723,724,587,-1,674,722,611,-1,725,726,727,-1,615,611,722,-1,728,729,730,-1,730,731,732,-1,732,728,730,-1,733,725,734,-1,733,726,725,-1,735,731,736,-1,731,735,732,-1,737,735,736,-1,737,615,738,-1,615,737,736,-1,738,615,722,-1,726,739,727,-1,740,739,719,-1,739,740,727,-1,720,723,593,-1,740,719,593,-1,587,593,723,-1,723,741,673,-1,742,677,716,-1,672,680,713,-1,677,672,713,-1,680,712,713,-1,713,714,677,-1,743,718,676,-1,675,611,676,-1,744,587,724,-1,717,718,745,-1,675,676,718,-1,587,746,747,-1,676,611,747,-1,587,747,611,-1,677,676,715,-1,676,747,715,-1,742,672,677,-1,748,742,746,-1,746,587,748,-1,587,749,748,-1,742,750,672,-1,742,716,746,-1,672,750,673,-1,587,744,751,-1,750,749,751,-1,587,751,749,-1,673,750,752,-1,751,752,750,-1,723,673,724,-1,752,724,673,-1,753,754,755,-1,756,755,754,-1,753,757,754,-1,756,758,755,-1,759,754,757,-1,760,758,756,-1,757,761,759,-1,762,759,761,-1,762,745,663,-1,663,759,762,-1,718,662,663,-1,745,718,663,-1,718,743,664,-1,664,662,718,-1,743,676,644,-1,644,664,743,-1,757,763,761,-1,757,753,764,-1,764,763,757,-1,753,765,764,-1,753,755,765,-1,762,761,763,-1,763,717,762,-1,762,717,745,-1,661,717,765,-1,717,764,765,-1,717,661,675,-1,661,765,766,-1,661,660,675,-1,661,766,767,-1,763,764,717,-1,766,768,767,-1,768,766,769,-1,770,771,772,-1,773,774,770,-1,770,772,773,-1,774,775,776,-1,775,774,773,-1,777,776,778,-1,775,778,776,-1,769,766,777,-1,777,778,769,-1,772,771,779,-1,780,779,781,-1,771,781,779,-1,782,783,780,-1,780,781,782,-1,783,784,785,-1,784,783,782,-1,784,760,785,-1,785,760,756,-1,775,773,780,-1,768,756,754,-1,778,785,769,-1,779,773,772,-1,775,780,783,-1,780,773,779,-1,775,783,778,-1,778,783,785,-1,756,769,785,-1,756,768,769,-1,661,759,663,-1,754,767,768,-1,767,754,759,-1,661,767,759,-1,777,760,784,-1,758,766,765,-1,782,774,776,-1,774,781,770,-1,771,770,781,-1,774,782,781,-1,776,777,784,-1,776,784,782,-1,766,760,777,-1,765,755,758,-1,760,766,758,-1,714,625,624,-1,714,624,677,-1,679,707,710,-1,711,684,710,-1,679,710,684,-1,711,712,680,-1,680,684,711,-1,705,707,679,-1,679,678,705,-1,705,678,706,-1,693,689,688,-1,694,702,700,-1,699,693,691,-1,693,699,689,-1,699,691,700,-1,696,702,694,-1,694,700,691,-1,696,682,702,-1,696,708,682,-1,706,678,708,-1,708,678,682,-1,741,642,641,-1,741,641,673,-1,723,642,741,-1,642,723,640,-1,720,640,723,-1,640,720,656,-1,630,629,734,-1,725,631,630,-1,630,734,725,-1,631,727,648,-1,727,631,725,-1,652,648,740,-1,727,740,648,-1,593,594,652,-1,652,740,593,-1,734,629,733,-1,726,733,647,-1,629,647,733,-1,649,739,726,-1,726,647,649,-1,739,655,719,-1,655,739,649,-1,655,656,719,-1,719,656,720,-1,608,613,590,-1,588,609,608,-1,608,590,588,-1,587,609,588,-1,587,611,609,-1,590,613,592,-1,592,616,595,-1,616,592,613,-1,616,617,595,-1,595,617,596,-1,786,596,787,-1,596,786,584,-1,603,584,786,-1,603,788,789,-1,603,786,788,-1,596,617,789,-1,603,789,617,-1,596,789,787,-1,788,621,622,-1,788,786,621,-1,786,620,621,-1,786,787,620,-1,787,623,620,-1,787,789,623,-1,789,622,623,-1,789,788,622,-1,639,650,728,-1,732,637,639,-1,639,728,732,-1,637,735,654,-1,735,637,732,-1,635,654,737,-1,735,737,654,-1,738,634,635,-1,635,737,738,-1,728,650,729,-1,730,729,638,-1,650,638,729,-1,653,731,730,-1,730,638,653,-1,731,657,736,-1,657,731,653,-1,657,614,736,-1,736,614,615,-1,722,634,738,-1,634,722,651,-1,721,651,722,-1,651,721,659,-1,674,659,721,-1,659,674,658,-1,751,645,669,-1,751,744,645,-1,744,646,645,-1,744,724,646,-1,724,671,646,-1,724,752,671,-1,752,669,671,-1,752,751,669,-1,748,670,668,-1,748,749,670,-1,749,667,670,-1,749,750,667,-1,750,627,667,-1,750,742,627,-1,742,668,627,-1,742,748,668,-1,747,666,665,-1,747,746,666,-1,746,628,666,-1,746,716,628,-1,716,643,628,-1,716,715,643,-1,715,665,643,-1,715,747,665,-1,685,633,632,-1,683,709,704,-1,709,685,632,-1,683,685,709,-1,438,430,436,-1,790,791,792,-1,436,487,545,-1,438,436,545,-1,545,487,501,-1,545,791,438,-1,434,436,430,-1,791,545,793,-1,793,792,791,-1,794,795,796,-1,797,798,794,-1,794,796,797,-1,798,799,800,-1,799,798,797,-1,801,800,802,-1,799,802,800,-1,791,790,801,-1,801,802,791,-1,796,795,803,-1,804,803,805,-1,795,805,803,-1,806,807,804,-1,804,805,806,-1,807,808,809,-1,808,807,806,-1,808,441,809,-1,809,441,444,-1,804,796,803,-1,809,802,799,-1,797,804,807,-1,804,797,796,-1,797,807,799,-1,444,802,809,-1,809,799,807,-1,444,791,802,-1,444,442,791,-1,439,438,442,-1,442,438,791,-1,795,794,798,-1,441,792,440,-1,798,800,805,-1,805,795,798,-1,805,800,806,-1,806,800,801,-1,808,801,790,-1,801,808,806,-1,808,790,441,-1,441,790,792,-1,793,545,445,-1,792,443,440,-1,443,793,445,-1,792,793,443,-1,490,552,553,-1,490,481,552,-1,481,573,552,-1,481,496,573,-1,496,574,573,-1,496,497,574,-1,497,553,574,-1,497,490,553,-1,495,575,579,-1,495,493,575,-1,493,578,575,-1,493,486,578,-1,486,544,578,-1,486,494,544,-1,494,579,544,-1,494,495,579,-1,491,577,543,-1,491,485,577,-1,485,576,577,-1,485,489,576,-1,489,572,576,-1,489,492,572,-1,492,543,572,-1,492,491,543,-1,535,509,537,-1,535,533,506,-1,506,509,535,-1,533,505,506,-1,533,534,505,-1,538,537,509,-1,509,459,538,-1,538,459,458,-1,519,528,526,-1,536,507,505,-1,524,516,518,-1,516,523,512,-1,513,512,523,-1,516,524,523,-1,518,519,526,-1,518,526,524,-1,507,528,519,-1,505,534,536,-1,528,507,536,-1,
        ]
    }
}
Shape{
    appearance Appearance {
        material  Material 	{
            diffuseColor 0.6862745098039216 0.403921568627451 0.23921568627450981
            specularColor 0.7529411764705882 0.7529411764705882 0.7529411764705882
            ambientIntensity 1.0
            transparency 1.0
            shininess 0.5
        }
    }
    geometry IndexedFaceSet {
        ccw TRUE
        solid FALSE
        coord DEF co Coordinate {
            point [
                0.6346 -0.1408 0.5093, 0.4724 -0.4134 0.5093, 0.5853 -0.1408 0.5093, -0.1722 0.0982 0.5093, -0.2708 0.1171 0.5093, -0.2153 0.1171 0.5093, 0.6962 0.1548 0.5093, 0.4724 0.4134 0.5093, 0.7331 0.1548 0.5093, 1.8504 -1.0433 0.5093, 2.2835 -1.0433 0.5093, 2.2835 -1.3189 0.5093, 1.8504 -1.3189 0.5093, 1.2598 0.5709 0.5093, 1.8504 1.0433 0.5093, 1.8898 0.5709 0.5093, 0.5484 0.0794 0.5093, 0.5237 0.1548 0.5093, 0.6715 0.0794 0.5093, 2.2835 1.3189 0.5093, 2.2835 1.0433 0.5093, 1.8504 1.3189 0.5093, 1.063 1.0433 0.5093, -1.063 1.0433 0.5093, -1.063 1.3189 0.5093, -1.8504 1.3189 0.5093, -1.8504 1.0433 0.5093, -2.2835 1.3189 0.5093, 1.063 1.3189 0.5093, 0.315 -0.4134 0.5093, 0.1911 -0.1408 0.5093, 0.339 -0.1408 0.5093, -0.3693 0.0542 0.5093, -0.3693 -0.0401 0.5093, -0.6034 0.1171 0.5093, -2.2835 1.0433 0.5093, 0.3698 -0.1345 0.5093, -0.3262 0.136 0.5093, -0.4186 0.1548 0.5093, -0.3016 0.1486 0.5093, 1.063 -1.3189 0.5093, -1.063 -1.3189 0.5093, -1.063 -1.0433 0.5093, -0.1661 0.0794 0.5093, -0.3139 0.0982 0.5093, 1.063 -1.0433 0.5093, -2.2835 -1.0433 0.5093, -1.8504 -1.3189 0.5093, -2.2835 -1.3189 0.5093, -1.8504 -1.0433 0.5093, -0.0799 -0.1408 0.5093, -0.315 -0.4134 0.5093, -0.2153 -0.1408 0.5093, -0.2954 0.1108 0.5093, 1.2598 -0.5709 0.5093, -0.1907 0.1108 0.5093, 1.1024 0.4134 0.5093, 1.2598 0.4134 0.5093, -0.315 0.4134 0.5093, -0.2153 0.1548 0.5093, -0.2708 0.1548 0.5093, -0.4724 0.5709 0.5093, -0.315 0.5709 0.5093, 0.339 0.1548 0.5093, 0.4868 0.1548 0.5093, 1.2598 -0.4134 0.5093, 1.1024 -0.4134 0.5093, 1.1024 0.5709 0.5093, 0.3698 0.1486 0.5093, 0.3944 0.136 0.5093, 0.4313 0.0857 0.5093, 0.419 0.1108 0.5093, 0.4375 0.0542 0.5093, 0.4375 -0.0401 0.5093, 0.4313 -0.0716 0.5093, 0.419 -0.0968 0.5093, 0.3944 -0.1219 0.5093, 0.1419 -0.1408 0.5093, -0.0429 0.1171 0.5093, 0.1172 0.0165 0.5093, -0.0429 0.0165 0.5093, -0.3508 0.1108 0.5093, -0.4186 0.1171 0.5093, 0.1911 0.1548 0.5093, 0.1172 -0.0213 0.5093, -0.0429 -0.0213 0.5093, -0.0429 -0.103 0.5093, 0.1419 -0.103 0.5093, -0.2708 -0.1408 0.5093, 1.1024 -0.5709 0.5093, 0.1419 0.1171 0.5093, 0.315 0.4134 0.5093, 0.1419 0.1548 0.5093, -1.2598 -0.5709 0.5093, -0.0799 0.1548 0.5093, -0.1353 0.1108 0.5093, -0.1599 0.136 0.5093, -1.8898 0.5709 0.5093, -1.8898 0.4134 0.5093, -3.1496 1.0433 0.5093, -0.3262 0.0794 0.5093, -0.6034 -0.1408 0.5093, -0.4724 -0.4134 0.5093, -0.3324 0.0542 0.5093, -1.8898 -0.5709 0.5093, -3.1496 -1.0433 0.5093, -1.8898 -0.4134 0.5093, -0.3324 -0.0401 0.5093, -0.1661 -0.0653 0.5093, -0.3016 -0.1345 0.5093, -0.3139 -0.0842 0.5093, -0.1722 -0.0842 0.5093, -0.1907 -0.0968 0.5093, -0.2153 -0.103 0.5093, -0.2708 -0.103 0.5093, -0.2954 -0.0968 0.5093, -0.3262 -0.0653 0.5093, -0.1291 -0.0653 0.5093, -0.1291 0.0794 0.5093, -0.1353 -0.0968 0.5093, -0.1599 -0.1219 0.5093, -0.1846 -0.1345 0.5093, -0.6403 -0.1408 0.5093, -0.3262 -0.1219 0.5093, -0.3508 -0.0968 0.5093, 0.4724 0.5709 0.5093, 0.315 0.5709 0.5093, -0.1846 0.1486 0.5093, -0.3632 0.0857 0.5093, -0.315 -0.5709 0.5093, -0.4724 -0.5709 0.5093, -0.3632 -0.0716 0.5093, -0.6403 0.1548 0.5093, -1.1024 -0.5709 0.5093, -1.2598 -0.4134 0.5093, -1.1024 -0.4134 0.5093, 3.1496 -1.0433 0.5093, 1.8898 -0.5709 0.5093, 1.8898 -0.4134 0.5093, 3.1496 1.0433 0.5093, 1.8898 0.4134 0.5093, 0.4724 -0.5709 0.5093, 0.315 -0.5709 0.5093, -1.2598 0.4134 0.5093, -1.1024 0.4134 0.5093, -0.4724 0.4134 0.5093, -1.2598 0.5709 0.5093, -1.1024 0.5709 0.5093, 0.4005 -0.0401 0.5093, 0.3944 -0.0653 0.5093, 0.3821 -0.0842 0.5093, 0.4005 0.0542 0.5093, 0.339 0.1171 0.5093, 0.3636 0.1108 0.5093, 0.3636 -0.0968 0.5093, 0.3821 0.0982 0.5093, 0.3944 0.0794 0.5093, 0.339 -0.103 0.5093, 0.2281 -0.103 0.5093, 0.2281 0.1171 0.5093, 0.5545 0.0542 0.5093, 0.6654 0.0542 0.5093, 0.61 -0.1156 0.5093, -1.063 -1.0433 0.903, 1.063 -1.3189 0.903, 1.063 -1.0433 0.903, 1.8504 1.0433 0.903, 1.063 1.0433 0.903, 1.0277 0.9252 0.903, 1.8504 -1.0433 0.903, 2.2835 -1.3189 0.903, 2.2835 -1.0433 0.903, 2.2835 1.0433 0.903, 1.8504 -1.3189 0.903, 3.1496 -1.0433 0.903, 3.1496 1.0433 0.903, 2.2835 1.3189 0.903, 1.8504 1.3189 0.903, -1.8504 1.0433 0.903, -2.8079 0.9252 0.903, -1.063 1.0433 0.903, -1.8504 1.3189 0.903, -2.2835 1.3189 0.903, 1.0277 -0.9252 0.903, 1.063 1.3189 0.903, -1.063 1.3189 0.903, -1.8504 -1.0433 0.903, -2.8079 -0.9252 0.903, -2.2835 1.0433 0.903, -3.1496 1.0433 0.903, -3.1496 -1.0433 0.903, -1.063 -1.3189 0.903, -2.2835 -1.0433 0.903, -2.2835 -1.3189 0.903, -1.8504 -1.3189 0.903
            ]
        }
        coordIndex [
            0,1,2,-1,3,4,5,-1,6,7,8,-1,9,10,11,-1,9,11,12,-1,13,14,15,-1,16,17,18,-1,19,20,21,-1,22,23,24,-1,25,26,27,-1,17,7,6,-1,20,14,21,-1,22,24,28,-1,29,30,31,-1,32,33,34,-1,27,26,35,-1,36,2,31,-1,37,38,39,-1,40,41,42,-1,3,43,44,-1,40,42,45,-1,46,47,48,-1,46,49,47,-1,50,51,52,-1,53,4,44,-1,45,54,9,-1,3,5,55,-1,8,56,57,-1,58,59,60,-1,61,23,62,-1,63,7,64,-1,17,6,18,-1,8,65,0,-1,65,66,0,-1,15,14,20,-1,13,57,67,-1,64,7,17,-1,64,68,63,-1,64,69,68,-1,64,70,71,-1,64,71,69,-1,70,64,72,-1,64,2,72,-1,2,73,72,-1,2,74,73,-1,2,75,74,-1,2,76,75,-1,2,36,76,-1,29,51,50,-1,77,30,29,-1,78,79,80,-1,37,81,82,-1,30,79,83,-1,30,84,79,-1,85,84,86,-1,84,87,86,-1,30,87,84,-1,51,88,52,-1,87,30,77,-1,89,54,45,-1,90,79,78,-1,7,63,91,-1,91,63,83,-1,79,90,83,-1,83,90,92,-1,42,49,93,-1,94,95,96,-1,62,58,61,-1,97,98,99,-1,4,3,44,-1,44,43,100,-1,34,33,101,-1,51,102,88,-1,38,37,82,-1,100,43,103,-1,104,105,106,-1,107,103,108,-1,101,109,88,-1,110,108,111,-1,112,113,111,-1,110,114,115,-1,113,114,110,-1,113,110,111,-1,116,108,110,-1,116,107,108,-1,103,43,108,-1,117,108,43,-1,118,94,50,-1,50,119,117,-1,119,50,120,-1,50,52,121,-1,120,50,121,-1,1,29,31,-1,102,122,101,-1,123,109,101,-1,124,123,101,-1,34,82,32,-1,46,104,49,-1,38,60,39,-1,125,7,126,-1,92,94,91,-1,94,59,58,-1,94,127,59,-1,94,96,127,-1,118,117,43,-1,50,117,118,-1,94,118,95,-1,82,128,32,-1,106,105,99,-1,60,38,58,-1,81,128,82,-1,129,42,130,-1,101,33,131,-1,122,98,132,-1,131,124,101,-1,133,134,135,-1,136,137,138,-1,137,9,54,-1,8,138,65,-1,139,136,140,-1,9,137,10,-1,136,10,137,-1,141,45,142,-1,66,65,54,-1,54,89,66,-1,2,1,31,-1,0,66,1,-1,141,89,45,-1,45,42,129,-1,1,141,29,-1,29,141,142,-1,101,88,102,-1,50,77,29,-1,129,142,45,-1,133,42,93,-1,102,51,129,-1,129,130,102,-1,98,106,99,-1,122,102,135,-1,133,130,42,-1,46,105,104,-1,135,134,122,-1,93,134,133,-1,143,144,132,-1,122,134,106,-1,104,93,49,-1,138,8,140,-1,20,139,15,-1,14,13,22,-1,139,140,15,-1,8,57,140,-1,140,136,138,-1,91,83,92,-1,67,22,13,-1,56,67,57,-1,62,23,126,-1,22,67,125,-1,7,56,8,-1,58,38,145,-1,97,99,35,-1,126,7,91,-1,22,125,126,-1,23,22,126,-1,94,58,91,-1,132,145,38,-1,146,23,147,-1,145,61,58,-1,26,23,146,-1,23,61,147,-1,144,145,132,-1,98,122,106,-1,144,146,147,-1,143,146,144,-1,26,97,35,-1,26,146,97,-1,98,143,132,-1,148,149,150,-1,151,152,153,-1,148,150,154,-1,151,155,156,-1,153,155,151,-1,151,148,152,-1,157,152,148,-1,158,159,157,-1,148,154,157,-1,157,159,152,-1,160,161,162,-1,163,164,165,-1,166,167,168,-1,169,170,171,-1,168,171,172,-1,168,172,166,-1,169,173,170,-1,172,171,174,-1,174,175,172,-1,176,177,172,-1,178,179,180,-1,181,182,178,-1,171,183,169,-1,172,177,166,-1,167,184,185,-1,180,167,185,-1,186,163,187,-1,163,165,183,-1,182,188,178,-1,189,190,187,-1,179,189,187,-1,178,188,179,-1,163,191,164,-1,192,193,194,-1,194,186,192,-1,183,187,163,-1,169,183,165,-1,167,180,168,-1,190,192,187,-1,187,192,186,-1,188,189,179,-1,179,168,180,-1,183,171,168,-1,
        ]
    }
}
Shape{
    appearance Appearance {
        material  Material 	{
            diffuseColor 0.6862745098039216 0.5333333333333333 0.43529411764705883
            specularColor 0.7529411764705882 0.7529411764705882 0.7529411764705882
            ambientIntensity 1.0
            transparency 1.0
            shininess 0.5
        }
    }
    geometry IndexedFaceSet {
        ccw TRUE
        solid FALSE
        coord DEF co Coordinate {
            point [
                -1.063 -1.3189 0.903, -1.063 -1.0433 0.5093, -1.063 -1.3189 0.5093, -1.063 -1.0433 0.903, -1.8504 -1.0433 0.5093, -1.8504 -1.0433 0.903, -1.8504 -1.3189 0.5093, -1.8504 -1.3189 0.903, 1.063 -1.3189 0.5093, 1.063 -1.3189 0.903, -2.2835 -1.3189 0.903, -2.2835 -1.3189 0.5093, 1.8504 -1.3189 0.903, 2.2835 -1.3189 0.5093, 2.2835 -1.3189 0.903, 1.8504 -1.3189 0.5093, -2.2835 -1.0433 0.5093, -2.2835 -1.0433 0.903, -3.1496 -1.0433 0.5093, -3.1496 -1.0433 0.903, -3.1496 1.0433 0.903, -3.1496 1.0433 0.5093, -2.2835 1.0433 0.5093, -2.2835 1.0433 0.903, -2.2835 1.3189 0.5093, -2.2835 1.3189 0.903, -1.8504 1.3189 0.903, -1.8504 1.3189 0.5093, 1.063 1.3189 0.903, 1.063 1.3189 0.5093, -1.063 1.3189 0.5093, -1.063 1.3189 0.903, 2.2835 1.3189 0.903, 2.2835 1.3189 0.5093, 1.8504 1.3189 0.5093, 1.8504 1.3189 0.903, -1.8504 1.0433 0.5093, -1.8504 1.0433 0.903, -1.063 1.0433 0.5093, -1.063 1.0433 0.903, 1.063 1.0433 0.5093, 1.063 1.0433 0.903, 1.8504 1.0433 0.5093, 1.8504 1.0433 0.903, 2.2835 1.0433 0.5093, 2.2835 1.0433 0.903, 3.1496 1.0433 0.5093, 3.1496 1.0433 0.903, 3.1496 -1.0433 0.903, 3.1496 -1.0433 0.5093, 2.2835 -1.0433 0.5093, 2.2835 -1.0433 0.903, 1.8504 -1.0433 0.5093, 1.8504 -1.0433 0.903, 1.063 -1.0433 0.5093, 1.063 -1.0433 0.903
            ]
        }
        coordIndex [
            0,1,2,-1,0,3,1,-1,3,4,1,-1,3,5,4,-1,5,6,4,-1,5,7,6,-1,0,8,9,-1,8,0,2,-1,10,11,6,-1,10,6,7,-1,12,13,14,-1,13,12,15,-1,10,16,11,-1,10,17,16,-1,17,18,16,-1,17,19,18,-1,20,18,19,-1,18,20,21,-1,20,22,21,-1,20,23,22,-1,23,24,22,-1,23,25,24,-1,26,24,25,-1,24,26,27,-1,28,29,30,-1,28,30,31,-1,32,33,34,-1,32,34,35,-1,26,36,27,-1,26,37,36,-1,37,38,36,-1,37,39,38,-1,39,30,38,-1,39,31,30,-1,28,40,29,-1,28,41,40,-1,41,42,40,-1,41,43,42,-1,43,34,42,-1,43,35,34,-1,32,44,33,-1,32,45,44,-1,45,46,44,-1,45,47,46,-1,48,49,46,-1,48,46,47,-1,48,50,49,-1,48,51,50,-1,51,13,50,-1,51,14,13,-1,12,52,15,-1,12,53,52,-1,53,54,52,-1,53,55,54,-1,55,8,54,-1,55,9,8,-1,
        ]
    }
}
Shape{
    appearance Appearance {
        material  Material 	{
            diffuseColor 0.2549019607843137 0.2549019607843137 0.2549019607843137
            specularColor 0.7529411764705882 0.7529411764705882 0.7529411764705882
            ambientIntensity 1.0
            transparency 1.0
            shininess 0.5
        }
    }
    geometry IndexedFaceSet {
        ccw TRUE
        solid FALSE
        coord DEF co Coordinate {
            point [
                1.0277 -0.9252 0.903, 1.0277 -0.9252 2.7928, -2.8079 -0.9252 2.7928, -2.8079 -0.9252 0.903, -2.8079 0.9252 2.7928, -2.8079 0.9252 0.903, 1.0277 0.9252 2.7928, 1.0277 0.9252 0.903, -1.378 -0.4921 2.7928, -0.1969 -0.4921 2.7928, -1.378 0.4921 2.7928, -0.1969 0.4921 2.7928, -1.378 0.4921 6.156, -1.378 -0.4921 6.156, -1.2598 0.4921 6.2967, -1.2598 -0.4921 6.2967, -0.6693 0.4921 6.156, -0.5512 0.4921 6.2967, -0.4331 0.4921 6.156, -1.1417 0.4921 6.156, -0.315 0.4921 6.2967, -0.1969 0.4921 6.156, -1.0236 0.4921 6.2967, -0.9055 0.4921 6.156, -0.7874 0.4921 6.2967, -0.7874 -0.4921 6.2967, -0.6693 -0.4921 6.156, -0.9055 -0.4921 6.156, -0.1969 -0.4921 6.156, -0.315 -0.4921 6.2967, -0.4331 -0.4921 6.156, -1.1417 -0.4921 6.156, -1.0236 -0.4921 6.2967, -0.5512 -0.4921 6.2967
            ]
        }
        coordIndex [
            0,1,2,-1,0,2,3,-1,3,2,4,-1,3,4,5,-1,5,4,6,-1,5,6,7,-1,7,6,1,-1,7,1,0,-1,8,1,9,-1,1,8,2,-1,4,2,8,-1,6,4,10,-1,4,8,10,-1,1,6,11,-1,6,10,11,-1,1,11,9,-1,12,8,13,-1,8,12,10,-1,14,13,15,-1,14,12,13,-1,16,17,18,-1,12,14,19,-1,18,20,21,-1,11,16,18,-1,10,12,19,-1,21,11,18,-1,11,10,16,-1,22,23,19,-1,23,10,19,-1,24,16,23,-1,16,10,23,-1,25,26,16,-1,16,24,25,-1,27,8,9,-1,28,29,30,-1,31,8,27,-1,32,31,27,-1,31,15,13,-1,13,8,31,-1,26,9,30,-1,28,30,9,-1,30,33,26,-1,27,9,26,-1,25,27,26,-1,26,33,17,-1,17,16,26,-1,33,30,18,-1,18,17,33,-1,30,29,20,-1,20,18,30,-1,29,28,21,-1,21,20,29,-1,28,11,21,-1,11,28,9,-1,15,31,19,-1,19,14,15,-1,31,32,22,-1,22,19,31,-1,32,27,23,-1,23,22,32,-1,27,25,24,-1,24,23,27,-1,
        ]
    }
}